<?xml version="1.0" encoding="utf-8"?>
<!-- Generator: Adobe Illustrator 23.0.3, SVG Export Plug-In . SVG Version: 6.00 Build 0)  -->
<svg version="1.1" id="Layer_1" xmlns="http://www.w3.org/2000/svg" xmlns:xlink="http://www.w3.org/1999/xlink" x="0px" y="0px"
	 viewBox="0 0 100 100" style="enable-background:new 0 0 100 100;" xml:space="preserve">
<style type="text/css">
	.st0{fill:#81233D;}
	.st1{fill:none;stroke:#81233D;stroke-width:3;stroke-miterlimit:10;}
</style>
<g>
	<g transform="translate(50 50) scale(0.69 0.69) rotate(0) translate(-50 -50)">
		<title>group bidding-offering-auction-offer-bid</title>
		<g>
			<path class="st0" d="M95.6,71.7l-6.3-2.5c0.3-1.3,0.3-2.6-0.1-3.9L89,64.6c0-0.1,0-0.1-0.1-0.2L86.8,60c-0.9-2-2.6-3.5-4.7-4.2
				l-11.3-3.8c-0.1,0-0.2,0-0.3-0.1V39c8.4-2.4,13.3-11.2,10.9-19.6S70.2,6.1,61.8,8.6S48.5,19.7,50.9,28.2
				c1.5,5.1,5.4,9.2,10.5,10.8v14.2l-0.8-0.3c-1.2-0.4-2.4-0.3-3.6,0.2c-1.1,0.5-2,1.5-2.4,2.7c-0.3,0.8-0.3,1.6-0.1,2.5
				c-0.3,0.1-0.6,0.2-0.9,0.3c-1.1,0.5-1.9,1.5-2.3,2.7c-0.4,1.2-0.3,2.5,0.2,3.6c0.1,0.3,0.3,0.5,0.5,0.8c-0.6,0.5-1.1,1.2-1.4,2
				c-0.5,1.5-0.2,3.1,0.7,4.3c-0.6,0.5-1.1,1.2-1.3,1.9L49.9,74c-0.4,1.2-0.3,2.4,0.2,3.5c0.5,1.1,1.5,1.9,2.6,2.3l6.9,2.4
				c0.2,0.1,0.5,0.1,0.7,0.2l13.2,4.9l1.7,0.6c2.5,0.8,5.2,0.1,6.9-1.7l11,4.6c0.8,0.3,1.7,0,2-0.8c0.3-0.8,0-1.7-0.8-2c0,0,0,0,0,0
				l-12.1-5c-0.7-0.3-1.5,0-1.9,0.6c-0.9,1.4-2.6,2-4.2,1.5l-11.4-4.2l0,0c0.1-0.1,0.2-0.3,0.3-0.4c0-0.1,0.1-0.1,0.1-0.2
				c0.1-0.2,0.2-0.4,0.3-0.7l0.1-0.3c0.1-0.3,0.2-0.7,0.2-1.1c0-0.1,0-0.2,0-0.3c0-0.3,0-0.5-0.1-0.8c0-0.1,0-0.1,0-0.2
				c0.4-0.1,0.7-0.3,1.1-0.5c0.1,0,0.1-0.1,0.2-0.1l0,0l0,0l0,0l0,0l0,0c0.1-0.1,0.2-0.2,0.3-0.2c0,0,0.1-0.1,0.1-0.1
				c0.2-0.1,0.3-0.3,0.4-0.4c0,0,0,0,0,0c0.1-0.1,0.2-0.2,0.2-0.2c0,0,0.1-0.1,0.1-0.2c0-0.1,0.1-0.2,0.2-0.2l0.3-0.3v-0.3
				c0-0.1,0.1-0.2,0.1-0.2c0.1-0.3,0.2-0.5,0.2-0.8c0-0.3,0.1-0.5,0.1-0.8c0-0.7-0.2-1.4-0.5-2c-0.1-0.3-0.3-0.5-0.5-0.8l0,0
				c0,0,0.1-0.1,0.1-0.1c2.4-0.6,4.3-2.4,5.1-4.7l0.1-0.3l0.3,0.1c-0.9,3.3-0.1,6.8,2.2,9.3c0.6,0.6,1.6,0.6,2.2,0
				c0.6-0.6,0.6-1.6,0-2.2c-1.7-1.7-2.1-4.5-1-7.5c0.3-0.8-0.2-1.7-1-2c0,0,0,0,0,0L73,60.9c-0.8-0.3-1.7,0.2-2,1c0,0,0,0,0,0l0,0
				l0,0l-0.6,1.8c-0.5,1.4-1.7,2.5-3.2,2.8l0,0c-0.8,0.2-1.5,0.1-2.3-0.1l-0.3-0.1l3.6-10.5l0-0.1l0,0c0-0.1,0.1-0.2,0.2-0.3
				c0.2-0.3,0.5-0.5,0.9-0.5c0.2,0,0.4,0,0.6,0.1l11.2,3.8c1.3,0.4,2.3,1.4,2.9,2.6l2,4.4l0.2,0.5c0.3,0.9,0.2,1.9-0.1,2.8l-0.2,0.5
				c-0.3,0.8,0.1,1.7,0.9,2l7.6,3c0.8,0.3,1.7-0.1,2-0.9C96.7,72.9,96.3,72,95.6,71.7L95.6,71.7z M53.6,68.6
				c0.1-0.4,0.4-0.7,0.8-0.9c0.4-0.2,0.8-0.2,1.2-0.1l2.9,1l5.3,1.8l0,0l1.2,0.4c0.4,0.1,0.7,0.4,0.9,0.8c0.1,0.2,0.2,0.4,0.1,0.7
				c0,0.1,0,0.2,0,0.2l-0.1,0.3l-0.2,0.4l0,0l0,0l-0.2,0.2c0,0-0.1,0.1-0.2,0.1c-0.5,0.3-1,0.3-1.5,0.2c0,0,0,0-0.1,0l-0.9-0.3
				l-8.3-2.8c-0.4-0.1-0.7-0.4-0.9-0.8C53.5,69.4,53.5,68.9,53.6,68.6z M53.4,23.8c0-7,5.7-12.8,12.7-12.8c7,0,12.8,5.7,12.8,12.7
				c0,6.2-4.4,11.5-10.5,12.6c-1.1,0.2-2.2,0.3-3.4,0.2c-0.4,0-0.8-0.1-1.1-0.2C57.8,35.3,53.4,30,53.4,23.8L53.4,23.8z M64.5,39.6
				c0,0,0.1,0,0.1,0c0.3,0,0.5,0,0.8,0c0.2,0,0.4,0,0.7,0c0,0,0.1,0,0.1,0c0.2,0,0.5,0,0.7,0c0.2,0,0.4,0,0.6,0v12.6
				c-0.3,0.1-0.5,0.3-0.8,0.5c-0.1,0.1-0.1,0.1-0.2,0.2c-0.2,0.2-0.4,0.4-0.6,0.6c0,0.1-0.1,0.1-0.1,0.2c-0.2,0.2-0.3,0.5-0.4,0.8
				l-0.8-0.3L64.5,39.6z M57.6,56.7c0.1-0.4,0.4-0.7,0.8-0.9c0.4-0.2,0.8-0.2,1.2-0.1l2.9,1l1.8,0.6l-1,3l-4.7-1.6
				c-0.4-0.1-0.7-0.4-0.9-0.8C57.5,57.5,57.5,57.1,57.6,56.7z M54.3,62.2c0.1-0.4,0.4-0.7,0.8-0.9c0.4-0.2,0.8-0.2,1.2-0.1l6,2.1
				l-1,3l-2.7-0.9l-3.4-1.2c-0.4-0.1-0.7-0.4-0.9-0.8C54.2,63,54.1,62.6,54.3,62.2L54.3,62.2z M53,76.2c-0.2-0.3-0.2-0.7-0.1-1.1
				l0.1-0.3c0.3-0.8,1.1-1.2,1.8-0.9c0,0,0,0,0,0l6.9,2.4l0.2,0.1l0,0c0.1,0,0.1,0.1,0.2,0.1c0.1,0,0.1,0.1,0.2,0.1
				c0.1,0.1,0.1,0.1,0.2,0.2c0,0.1,0.1,0.1,0.1,0.2c0,0.1,0,0.1,0.1,0.2c0,0.1,0.1,0.2,0.1,0.3c0,0,0,0.1,0,0.1c0,0.1,0,0.3-0.1,0.4
				l-0.1,0.3c-0.2,0.6-0.9,1-1.5,1c-0.1,0-0.2,0-0.3-0.1l-7-2.4C53.4,76.8,53.1,76.5,53,76.2L53,76.2z"/>
			<path class="st0" d="M45.8,77.4c-0.2-0.6-0.6-1.1-1-1.6c0.1-0.1,0.2-0.3,0.3-0.4c0.5-1,0.6-2.2,0.2-3.2c-0.2-0.6-0.6-1.2-1.1-1.7
				c1.3-1.9,0.8-4.5-1.1-5.8c-0.2-0.1-0.3-0.2-0.5-0.3c-0.2-0.1-0.4-0.2-0.6-0.2c0.4-2.3-1.2-4.4-3.4-4.8c-0.7-0.1-1.4-0.1-2,0.2
				l-0.3,0.1V48.4c7.1-2.3,11-10,8.6-17.1s-10-11-17.1-8.6s-11,10-8.6,17.1c1.4,4.2,4.7,7.5,9,8.7v10.4c0,0-0.1,0-0.1,0l-9.4,3.2
				c-1.8,0.6-3.3,1.9-4.1,3.7l-1.7,3.8c0,0.1,0,0.1-0.1,0.2l-0.2,0.6c-0.3,1-0.4,2.1-0.1,3.2l-7.9,3.1c-0.8,0.3-1.2,1.2-0.9,2
				c0.3,0.8,1.2,1.2,2,0.9l0,0l9.2-3.7c0.8-0.3,1.2-1.2,0.9-2l-0.2-0.5c-0.3-0.7-0.3-1.4-0.1-2.1l1.9-4.1c0.5-1,1.3-1.7,2.3-2.1
				l9.4-3.2c0.1,0,0.3-0.1,0.4,0l0,0c0.1,0,0.2,0.1,0.3,0.2c0.2,0.1,0.3,0.3,0.4,0.4l0.1,0.3l2.8,8.3l0,0c-0.6,0.2-1.2,0.2-1.8,0.1
				l0,0c-1.2-0.2-2.1-1.1-2.5-2.2l-0.5-1.5l0,0l0,0c-0.3-0.8-1.2-1.2-2-1c0,0,0,0,0,0l-2.7,0.9c-0.8,0.3-1.2,1.2-1,2c0,0,0,0,0,0
				c0.9,2,0.6,4.4-0.8,6.1c-0.6,0.6-0.6,1.6-0.1,2.2s1.6,0.6,2.2,0.1c0,0,0,0,0,0c1.8-1.9,2.6-4.5,2.1-7c0.8,1.6,2.2,2.8,3.9,3.4
				c-0.1,0.1-0.2,0.3-0.2,0.4c-0.3,0.6-0.4,1.2-0.4,1.9c0,0.2,0,0.4,0,0.6c0,0.3,0.1,0.5,0.2,0.8c0,0.1,0.1,0.2,0.1,0.2l0,0.3
				l0.3,0.3c0,0.1,0.1,0.1,0.1,0.1l0,0c0,0,0.1,0.1,0.1,0.2c0,0.1,0.1,0.1,0.2,0.2l0,0c0,0,0,0,0,0s0,0,0,0c0.1,0.1,0.1,0.1,0.2,0.2
				c0,0,0,0,0.1,0.1c0.1,0.1,0.2,0.2,0.3,0.2c0,0,0.1,0.1,0.1,0.1l0,0c0,0,0,0,0.1,0c0,0,0.1,0,0.1,0c0.1,0.1,0.2,0.2,0.4,0.2
				c0.1,0.1,0.2,0.1,0.3,0.1c0,0,0.1,0,0.1,0c0,0,0,0,0,0.1c0,0.3,0,0.6,0,0.8c0,0,0,0,0,0.1c0,0.3,0.1,0.6,0.2,0.9l0,0l0,0l0.1,0.2
				c0.1,0.3,0.2,0.6,0.4,0.8c0,0,0,0.1,0,0.1l-7.9,3l-1.4,0.5c-1.2,0.4-2.5-0.1-3.2-1.2c-0.4-0.6-1.2-0.9-1.9-0.6L8.2,89
				c-0.8,0.3-1.2,1.2-0.8,2c0.3,0.8,1.2,1.2,2,0.8l0,0l9.1-3.8c1.6,1.5,3.9,2.1,6,1.4L37,84.9c0.2,0,0.4-0.1,0.5-0.1l5.8-2
				c1-0.3,1.8-1.1,2.3-2c0.5-1,0.6-2.1,0.2-3.1L45.8,77.4z M41.7,74.5l-1,0.3l0,0L35,76.8l-0.3,0.1l-0.8,0.3l0,0l0,0
				c-0.3,0.1-0.7,0.1-1-0.1l-0.2-0.2l-0.2-0.5c0-0.1,0-0.1,0-0.2c0-0.5,0.3-0.9,0.7-1l1-0.3l0,0l0,0l4.3-1.5l2.6-0.9
				c0.3-0.1,0.6-0.1,0.8,0c0.3,0.1,0.5,0.4,0.6,0.6c0.1,0.3,0.1,0.6-0.1,0.8C42.2,74.2,41.9,74.4,41.7,74.5z M41.7,68.6
				c-0.1,0.3-0.4,0.5-0.6,0.5l-2.9,1l-1.9,0.7l-0.7-2l4.8-1.7c0.3-0.1,0.6-0.1,0.8,0.1c0.3,0.1,0.5,0.4,0.5,0.6
				C41.9,68.1,41.8,68.3,41.7,68.6L41.7,68.6z M37.6,62.5c0.3-0.1,0.6-0.1,0.8,0.1c0.3,0.1,0.4,0.3,0.5,0.6c0.1,0.3,0.1,0.6,0,0.8
				c-0.1,0.3-0.3,0.4-0.6,0.5l-3.7,1.3l-0.2-0.5l0,0l-0.5-1.5l2.4-0.8l0,0L37.6,62.5z M32.8,60.9c0-0.1-0.1-0.1-0.1-0.2
				c-0.1-0.2-0.2-0.4-0.4-0.6c-0.1-0.1-0.2-0.2-0.3-0.4c-0.2-0.1-0.3-0.3-0.5-0.4c-0.1-0.1-0.2-0.2-0.3-0.2V49c0.1,0,0.2,0,0.2,0
				c0.2,0,0.4,0,0.6,0c0.3,0,0.6,0,1,0c0.1,0,0.1,0,0.2,0v11.8L32.8,60.9z M21.6,35.5C21.6,29.7,26.2,25,32,25
				c5.8,0,10.5,4.7,10.5,10.4c0,5.1-3.6,9.4-8.6,10.3C33,46,32,46,31.1,45.9c-0.3,0-0.6-0.1-0.9-0.1C25.2,44.9,21.6,40.6,21.6,35.5z
				 M42.9,79.3c-0.1,0.2-0.3,0.4-0.5,0.5l-5.9,2c-0.1,0-0.1,0-0.1,0c-0.5,0.1-0.9-0.2-1.1-0.7L35.2,81c0-0.1-0.1-0.2,0-0.4
				c0,0,0-0.1,0-0.1c0-0.1,0-0.2,0.1-0.2c0,0,0-0.1,0.1-0.1c0-0.1,0.1-0.1,0.1-0.2c0,0,0.1-0.1,0.1-0.1c0.1,0,0.1-0.1,0.2-0.1l6-2.1
				c0.5-0.2,1,0.1,1.2,0.6c0,0,0,0,0,0l0.1,0.2C43,78.8,43,79.1,42.9,79.3z"/>
			<path class="st0" d="M64.5,31.7c0,0.9,0.7,1.5,1.5,1.5c0.9,0,1.5-0.7,1.5-1.5v-0.8c2.3-0.9,3.4-3.5,2.5-5.8
				c-0.7-1.7-2.3-2.8-4.2-2.8c-0.8,0-1.4-0.6-1.4-1.4s0.6-1.4,1.4-1.4c0.8,0,1.4,0.6,1.4,1.4c0,0,0,0,0,0c0,0.9,0.7,1.5,1.5,1.5
				c0.9,0,1.5-0.7,1.5-1.5c0-1.8-1.1-3.5-2.8-4.2v-0.7c0-0.9-0.7-1.5-1.5-1.5c-0.9,0-1.5,0.7-1.5,1.5l0,0v0.7
				c-2.4,0.8-3.6,3.3-2.8,5.7c0.6,1.8,2.3,3.1,4.3,3.1c0.8,0,1.4,0.6,1.4,1.4s-0.6,1.4-1.4,1.4c-0.8,0-1.4-0.6-1.4-1.4v0
				c0-0.9-0.7-1.5-1.5-1.5c-0.9,0-1.5,0.7-1.5,1.5c0,1.9,1.2,3.6,3.1,4.3V31.7z"/>
			<path class="st0" d="M30.5,42.5c0,0.9,0.7,1.5,1.5,1.5c0.9,0,1.5-0.7,1.5-1.5V42c2-0.9,3-3.3,2.1-5.4c-0.7-1.5-2.1-2.4-3.7-2.4
				c-0.5,0-1-0.4-1-1c0-0.5,0.4-1,1-1s1,0.4,1,1l0,0c0,0.9,0.7,1.5,1.5,1.5c0.9,0,1.5-0.7,1.5-1.5c0-1.6-0.9-3.1-2.4-3.7v-0.5
				c0-0.9-0.7-1.5-1.5-1.5c-0.9,0-1.5,0.7-1.5,1.5v0.4c-2.1,0.8-3.2,3.1-2.4,5.2c0.6,1.6,2.1,2.6,3.8,2.6c0.5,0,1,0.4,1,1
				s-0.4,1-1,1s-1-0.4-1-1l0,0c0-0.9-0.7-1.5-1.5-1.5c-0.9,0-1.5,0.7-1.5,1.5c0,0,0,0,0,0c0,1.7,1.1,3.2,2.6,3.8V42.5z"/>
		</g>
	</g>
</g>
<circle class="st1" cx="50" cy="50" r="44.8"/>
</svg>
