<?xml version="1.0" encoding="utf-8"?>
<!-- Generator: Adobe Illustrator 23.0.3, SVG Export Plug-In . SVG Version: 6.00 Build 0)  -->
<svg version="1.1" id="Layer_1" xmlns="http://www.w3.org/2000/svg" xmlns:xlink="http://www.w3.org/1999/xlink" x="0px" y="0px"
	 viewBox="0 0 100 100" style="enable-background:new 0 0 100 100;" xml:space="preserve">
<style type="text/css">
	.st0{fill:#D9F9F1;}
	.st1{fill:none;stroke:#D9F9F1;stroke-width:3;stroke-miterlimit:10;}
</style>
<g>
	<g transform="translate(50 50) scale(0.69 0.69) rotate(0) translate(-50 -50)">
		<g>
			<path class="st0" d="M94.1,42.4h-6.9c-0.5,0-0.9,0.4-0.9,0.9s0.4,0.9,0.9,0.9h6.9c0.5,0,0.9-0.4,0.9-0.9S94.6,42.4,94.1,42.4z"/>
			<path class="st0" d="M84.3,34.7c0,0.1,0,0.2,0.1,0.3c0.2,0.5,0.7,0.7,1.2,0.5L92,33c0.5-0.2,0.7-0.7,0.5-1.2s-0.7-0.7-1.2-0.5
				l-6.4,2.5C84.5,33.9,84.3,34.3,84.3,34.7z"/>
			<path class="st0" d="M80.8,28.3l4.7-5.1c0.4-0.4,0.3-1-0.1-1.3c-0.4-0.4-1-0.3-1.3,0.1l-4.7,5c-0.2,0.2-0.2,0.4-0.2,0.6
				c0,0.3,0.1,0.5,0.3,0.7C79.8,28.7,80.4,28.7,80.8,28.3z"/>
			<path class="st0" d="M92,53.7l-6.4-2.5c-0.5-0.2-1,0-1.2,0.5c0,0.1-0.1,0.2-0.1,0.3c0,0.4,0.2,0.7,0.6,0.9l6.4,2.5
				c0.5,0.2,1,0,1.2-0.5C92.7,54.5,92.5,53.9,92,53.7z"/>
			<path class="st0" d="M80.8,58.4c-0.3-0.4-0.9-0.4-1.3-0.1c-0.2,0.2-0.3,0.4-0.3,0.7c0,0.2,0.1,0.5,0.2,0.6l4.7,5.1
				c0.3,0.4,0.9,0.4,1.3,0.1c0.4-0.4,0.4-0.9,0.1-1.3L80.8,58.4z"/>
			<path class="st0" d="M70.4,19.6c-1.1,0-2.1,0.7-3,2.3c-0.6,1.1-6.8,11-15.1,12.4c-8.3,1.4-17.6,1.8-23.4,1.8H12
				c-3.9,0-7,2.5-7,5.6v2.2v2.2c0,3.1,3.1,5.6,7,5.6h12.1l-3,26c-0.3,2.8,0,3.8,1.6,3.8h9h0.7c1,0,2.3,0,2.8,0
				c0.7,0,1.1-0.6,1.1-1.2l0.5-4.3c0.1-0.6-0.2-1.2-0.9-1.2c0,0,0,0-0.1,0s-0.2,0-0.2,0h-0.1c-1,0-2.4-1-2.1-3.5l2.2-19.4
				c5.1,0.2,11,0.7,16.5,1.7C60.6,55,66.8,64.8,67.5,66c0.9,1.6,1.9,2.3,3,2.3s2.6-0.7,2.6-2.3V44V22C73,20.3,71.5,19.6,70.4,19.6z"
				/>
		</g>
	</g>
</g>
<circle class="st1" cx="50" cy="50" r="44.8"/>
</svg>
