<?xml version="1.0" encoding="utf-8"?>
<!-- Generator: Adobe Illustrator 23.0.3, SVG Export Plug-In . SVG Version: 6.00 Build 0)  -->
<svg version="1.1" id="Layer_1" xmlns="http://www.w3.org/2000/svg" xmlns:xlink="http://www.w3.org/1999/xlink" x="0px" y="0px"
	 viewBox="0 0 100 100" style="enable-background:new 0 0 100 100;" xml:space="preserve">
<style type="text/css">
	.st0{fill:#81233D;}
	.st1{fill:none;stroke:#81233D;stroke-width:3;stroke-miterlimit:10;}
</style>
<g>
	<g transform="translate(50 50) scale(0.69 0.69) rotate(0) translate(-50 -50)">
		<title>Use Crypto currency</title>
		<g>
			<g>
				<path class="st0" d="M99.9,36.6c-1.1-11.5-11.2-19.9-22.7-18.8C67.7,18.7,60,26,58.5,35.4v0.1H37.5c-4.6,0-9.1,1.4-13,3.9
					l-9.2,6.1c-0.7,0.4-1.4,0.7-2.2,0.7H1.3c-0.7,0-1.3,0.6-1.3,1.3c0,0.7,0.6,1.3,1.3,1.3h11.7c1.3,0,2.6-0.4,3.7-1.1l9.2-6.1
					c3.4-2.3,7.4-3.5,11.5-3.5h31.6c0.9,0,1.6,0.7,1.6,1.6c0,2.3-1,2.7-1.9,2.9l-30.3,6l-0.2,0.9c-1.8,8.7-3.8,9.5-6.8,10
					c-0.7,0.1-1.3,0.7-1.2,1.4c0.1,0.7,0.7,1.3,1.4,1.2l0,0h0.2c2.4-0.4,4.2-1.1,5.7-3.1c0.2,0.5,0.5,0.9,0.9,1.3l0.2,0.2
					c-1.6,1-2.7,2.6-2.9,4.5l-0.1,0.4c-0.2,1.7,0.3,3.5,1.5,4.8c0.1,0.1,0.1,0.2,0.2,0.3c-1.6,1-2.7,2.6-3,4.5
					c-0.2,1.4-0.1,2.8,0.5,4c-2.1-0.1-4.1-0.3-5.8-0.5c-5.7-0.6-6.6-1.1-11.9-4.6l-5.7-4.9c-0.2-0.2-0.6-0.3-0.9-0.3H1.8
					c-0.7,0-1.3,0.6-1.3,1.3c0,0.7,0.6,1.3,1.3,1.3h8.4l5.4,4.6l0.1,0.1c5.4,3.6,6.8,4.4,13.1,5.1c6.1,0.7,16.7,0.9,17.2,0.9h7.5
					c3.4,0,6.2-2.8,6.2-6.2c0,0,0,0,0,0v-0.9c0-1.1-0.3-2.2-1-3.1h0.7c3.6-0.1,6.5-2.1,7.3-5.1c0-0.1,0-0.2,0-0.3V65
					c0.1-1.6-0.7-3.2-2-4.2l0.3-0.3c1.1-1.1,1.7-2.5,1.7-4.1v-1.1c3.5,2.6,7.8,4,12.2,4c0.7,0,1.3,0,2-0.1
					C92.5,58.2,101,48.1,99.9,36.6C99.9,36.6,99.9,36.6,99.9,36.6z M69.4,45.3c2.6-0.6,4-2.5,4-5.5c0-2.4-1.9-4.3-4.3-4.3h-3.4
					c0.1-0.1,0.1-0.2,0.1-0.3c1.8-7.4,9.3-12,16.7-10.2c7.4,1.8,12,9.3,10.2,16.7c-1.8,7.4-9.3,12-16.7,10.2
					c-3.6-0.9-6.6-3.1-8.5-6.2L69.4,45.3z M61.3,49.2l0.1,0.1c0.1,0.2,0.2,0.4,0.3,0.5l-15.3,0.1l13.9-2.8L61.3,49.2z M57.2,76.1
					c0,2-1.6,3.6-3.6,3.6h-6.2l-7.9-0.2h-0.1c-0.6,0-1.2-0.3-1.6-0.7c-0.6-1-0.9-2.1-0.6-3.2c0.2-1.7,1.7-3,3.4-3h1.4h0.2h0.2h12.2
					c1.5,0,2.7,1.2,2.7,2.7c0,0,0,0,0,0L57.2,76.1z M64.2,66.5c-0.6,2-2.8,2.9-4.8,2.9l-17.2,0.4h-0.5c-1.9,0-3.4-1.6-3.4-3.5
					c0-0.1,0-0.2,0-0.3l0.1-0.4c0.2-1.7,1.7-3,3.4-3h1.7l0,0l17.6-0.2c0.5,0,3.1,0.1,3.1,2.7V66.5z M64.2,56.5
					c0,0.8-0.3,1.6-0.9,2.2c-0.6,0.6-1.4,0.9-2.3,0.9l0,0l-17.6,0.2h-0.4c-1,0-1.9-0.4-2.6-1.1c-0.7-0.7-1-1.7-0.9-2.7v-0.3
					c0.2-1.7,1.7-3,3.4-3c2.6,0,12.9,0,18.7-0.1l0,0c0.7,0,1.3,0.3,1.8,0.7c0.5,0.5,0.7,1.1,0.7,1.8L64.2,56.5z M93.1,50.1
					c-6.4,7.7-17.9,8.8-25.6,2.3c-1.5-1.3-2.8-2.8-3.9-4.5L63,46.6l1.7-0.3C69,54.3,79,57.3,87,53c8-4.3,11-14.3,6.7-22.3
					c-4.3-8-14.3-11-22.3-6.7c-4.1,2.2-7.1,6.1-8.2,10.7c-0.1,0.3,0,0.6,0.2,0.9h-2.1c1.7-9.9,11-16.6,20.9-14.9s16.6,11,14.9,20.9
					C96.6,44.7,95.2,47.7,93.1,50.1L93.1,50.1z"/>
				<path class="st0" d="M77.6,49.5L77.6,49.5c0.5,0,0.9-0.4,0.9-0.9v-2.2h1h0.7v2.2c0,0.5,0.4,0.9,0.9,0.9l0,0
					c0.5,0,0.9-0.4,0.9-0.9v-2.4c2.4-0.6,3.7-2.1,3.7-4.6c0.1-1.9-1.2-3.6-3.1-4c1.5-0.5,2.4-1.9,2.4-3.5c0.1-1.9-1.1-3.6-3-4v-2.6
					c0-0.5-0.4-0.9-0.9-0.9l0,0c-0.5,0-0.9,0.4-0.9,0.9v2.3c-0.2,0-0.4,0-0.6,0h-1.2v-2.3c0-0.5-0.4-0.9-0.9-0.9l0,0
					c-0.5,0-0.9,0.4-0.9,0.9v2.2l0,0c-1,0-1.9,0.8-1.9,1.9c0,0,0,0,0,0v12.8c0,1,0.8,1.9,1.8,1.9l0,0v2.1
					C76.7,49.1,77.1,49.5,77.6,49.5C77.6,49.5,77.6,49.5,77.6,49.5z M77.9,32.3h1.6c1.9,0,2.7,0.8,2.7,2.1c0,1.3-1,2.3-2.9,2.3h-1.4
					L77.9,32.3z M77.9,39h1.7c2.1,0,3.2,0.9,3.2,2.6S81.6,44,79.6,44h-1.7L77.9,39z"/>
			</g>
		</g>
	</g>
</g>
<circle class="st1" cx="50" cy="50" r="44.8"/>
</svg>
