<svg xmlns="http://www.w3.org/2000/svg" xmlns:xlink="http://www.w3.org/1999/xlink" width="100" height="100" viewBox="0 0 100 100"><g><g transform="translate(50 50) scale(0.69 0.69) rotate(0) translate(-50 -50)" style="fill:#000000"><svg fill="#000000" xmlns="http://www.w3.org/2000/svg" viewBox="0 0 100 100" x="0px" y="0px"><title>Artboard 72</title><path d="M88.37,85.09,47,43.74l.09-.09a1,1,0,0,0,.12-1.28l-6.66-9.62L61.38,11.94a1,1,0,0,0,0-1.41C57.8,7,42.63,19.11,32.29,29L28.08,24.8a1,1,0,0,0-1.41,0l-4,4a1,1,0,0,0,0,1.41l4.22,4.22C17.07,44.72,5.16,59.67,8.7,63.21a1,1,0,0,0,1.41,0L30.66,42.66l9.62,6.66a1,1,0,0,0,1.28-.12l.09-.09L83,90.46a1,1,0,0,0,1.41,0l4-4a1,1,0,0,0,0-1.41ZM24.82,29.47l2.55-2.55,3.48,3.48-1.15,1.14L28.31,33ZM10.1,60.39c1.1-3.86,8.18-14.6,21-27.44S54.7,13,58.56,11.93Zm22-19.17,7-7,6,8.64L40.94,47H41l-.23.2ZM83.7,88.34,43.06,47.7l2.55-2.55L86.25,85.79Z"></path><path d="M27.18,55.27a6,6,0,1,0,8.54,0A6,6,0,0,0,27.18,55.27Zm7.13,7.13a4,4,0,1,1,0-5.72A4,4,0,0,1,34.31,62.4Z"></path><path d="M50.45,75.5a6,6,0,1,0,6,6A6,6,0,0,0,50.45,75.5Zm0,10.08a4,4,0,1,1,4-4A4,4,0,0,1,50.45,85.58Z"></path><path d="M28.45,72.5a6,6,0,1,0,6,6A6,6,0,0,0,28.45,72.5Zm0,10.08a4,4,0,1,1,4-4A4,4,0,0,1,28.45,82.58Z"></path></svg></g></g></svg>