<svg xmlns="http://www.w3.org/2000/svg" xmlns:xlink="http://www.w3.org/1999/xlink" width="100" height="100" viewBox="0 0 100 100"><g><g transform="translate(50 50) scale(0.69 0.69) rotate(0) translate(-50 -50)" style="fill:#000000"><svg fill="#000000" xmlns="http://www.w3.org/2000/svg" xmlns:xlink="http://www.w3.org/1999/xlink" version="1.1" x="0px" y="0px" viewBox="0 0 100 100" enable-background="new 0 0 100 100" xml:space="preserve"><g><path fill="#000000" d="M94.064,42.417H87.19c-0.517,0-0.935,0.418-0.935,0.935c0,0.516,0.418,0.935,0.935,0.935h6.874   c0.518,0,0.936-0.418,0.936-0.935C95,42.835,94.582,42.417,94.064,42.417z"></path><path fill="#000000" d="M84.304,34.661c0,0.115,0.021,0.232,0.066,0.346c0.191,0.48,0.734,0.713,1.214,0.523l6.389-2.543   c0.479-0.19,0.714-0.734,0.522-1.214c-0.191-0.479-0.734-0.714-1.214-0.523l-6.389,2.543C84.526,33.938,84.304,34.29,84.304,34.661   z"></path><path fill="#000000" d="M80.78,28.272l4.661-5.055c0.351-0.38,0.326-0.972-0.054-1.321c-0.38-0.35-0.972-0.326-1.321,0.053   l-4.66,5.054c-0.165,0.18-0.247,0.407-0.247,0.634c0,0.252,0.101,0.504,0.3,0.688C79.839,28.675,80.431,28.651,80.78,28.272z"></path><path fill="#000000" d="M91.973,53.718l-6.389-2.544c-0.479-0.19-1.022,0.044-1.214,0.523c-0.045,0.114-0.066,0.23-0.066,0.345   c0,0.372,0.223,0.724,0.589,0.87l6.389,2.543c0.479,0.19,1.022-0.045,1.214-0.522C92.687,54.452,92.452,53.907,91.973,53.718z"></path><path fill="#000000" d="M80.78,58.432c-0.35-0.378-0.941-0.403-1.321-0.054c-0.199,0.186-0.3,0.437-0.3,0.689   c0,0.226,0.082,0.453,0.247,0.633l4.66,5.054c0.35,0.38,0.941,0.403,1.321,0.054c0.38-0.351,0.404-0.942,0.054-1.32L80.78,58.432z"></path><path fill="#000000" d="M70.442,19.586c-1.089,0-2.057,0.676-2.978,2.297c-0.629,1.108-6.836,10.988-15.097,12.434   c-8.26,1.446-17.553,1.8-23.363,1.8h-16.97C8.149,36.117,5,38.642,5,41.756v2.164v2.164c0,3.114,3.149,5.639,7.035,5.639h12.122   l-3.006,25.955c-0.326,2.812,0.045,3.834,1.625,3.834h9.004h0.685c1.023,0,2.292,0,2.843,0c0.685,0,1.067-0.575,1.141-1.214   l0.496-4.281c0.074-0.64-0.175-1.216-0.859-1.216c-0.024,0-0.042,0-0.061,0c-0.121,0-0.17,0-0.173,0c-0.031,0-0.065,0-0.106,0   c-1.007,0-2.39-0.974-2.096-3.514l2.249-19.415c5.068,0.214,10.996,0.692,16.471,1.651c8.261,1.446,14.468,11.325,15.097,12.434   c0.921,1.621,1.889,2.298,2.978,2.298c1.087,0,2.55-0.743,2.55-2.298V43.92V21.883C72.992,20.33,71.529,19.586,70.442,19.586z"></path></g></svg></g></g></svg>