<?xml version="1.0" encoding="utf-8"?>
<!-- Generator: Adobe Illustrator 23.0.3, SVG Export Plug-In . SVG Version: 6.00 Build 0)  -->
<svg version="1.1" id="Layer_1" xmlns="http://www.w3.org/2000/svg" xmlns:xlink="http://www.w3.org/1999/xlink" x="0px" y="0px"
	 viewBox="0 0 658 200" style="enable-background:new 0 0 658 200;" xml:space="preserve">
<style type="text/css">
	.st0{fill:none;}
	.st1{fill:none;stroke:#27C195;stroke-width:2.88;}
	.st2{fill:none;stroke:#96FDE3;stroke-width:2.88;}
	.st3{fill:url(#SVGID_17_);}
	.st4{fill:url(#SVGID_18_);}
	.st5{fill:url(#SVGID_19_);}
	.st6{fill:url(#SVGID_20_);}
	.st7{fill:url(#SVGID_21_);}
	.st8{fill:url(#SVGID_22_);}
	.st9{fill:url(#SVGID_23_);}
	.st10{fill:url(#SVGID_24_);}
	.st11{fill:url(#SVGID_25_);}
	.st12{fill:url(#SVGID_26_);}
	.st13{fill:url(#SVGID_27_);}
	.st14{fill:url(#SVGID_28_);}
	.st15{fill:url(#SVGID_29_);}
	.st16{fill:url(#SVGID_30_);}
	.st17{fill:url(#SVGID_31_);}
	.st18{fill:url(#SVGID_32_);}
</style>
<pattern  y="200" width="72" height="72" patternUnits="userSpaceOnUse" id="SVGID_1_" viewBox="72.2 -72 72 72" style="overflow:visible;">
	<g>
		<rect x="72.2" y="-72" class="st0" width="72" height="72"/>
		<g>
			<rect x="72.2" y="-72" class="st0" width="72" height="72"/>
			<g>
				<line class="st1" x1="144" y1="-68.4" x2="216.5" y2="-68.4"/>
				<line class="st1" x1="144" y1="-54" x2="216.5" y2="-54"/>
				<line class="st1" x1="144" y1="-39.6" x2="216.5" y2="-39.6"/>
				<line class="st1" x1="144" y1="-25.2" x2="216.5" y2="-25.2"/>
				<line class="st1" x1="144" y1="-10.8" x2="216.5" y2="-10.8"/>
				<line class="st1" x1="144" y1="-61.2" x2="216.5" y2="-61.2"/>
				<line class="st1" x1="144" y1="-46.8" x2="216.5" y2="-46.8"/>
				<line class="st1" x1="144" y1="-32.4" x2="216.5" y2="-32.4"/>
				<line class="st1" x1="144" y1="-18" x2="216.5" y2="-18"/>
				<line class="st1" x1="144" y1="-3.6" x2="216.5" y2="-3.6"/>
			</g>
			<g>
				<line class="st1" x1="72" y1="-68.4" x2="144.5" y2="-68.4"/>
				<line class="st1" x1="72" y1="-54" x2="144.5" y2="-54"/>
				<line class="st1" x1="72" y1="-39.6" x2="144.5" y2="-39.6"/>
				<line class="st1" x1="72" y1="-25.2" x2="144.5" y2="-25.2"/>
				<line class="st1" x1="72" y1="-10.8" x2="144.5" y2="-10.8"/>
				<line class="st1" x1="72" y1="-61.2" x2="144.5" y2="-61.2"/>
				<line class="st1" x1="72" y1="-46.8" x2="144.5" y2="-46.8"/>
				<line class="st1" x1="72" y1="-32.4" x2="144.5" y2="-32.4"/>
				<line class="st1" x1="72" y1="-18" x2="144.5" y2="-18"/>
				<line class="st1" x1="72" y1="-3.6" x2="144.5" y2="-3.6"/>
			</g>
			<g>
				<line class="st1" x1="0" y1="-68.4" x2="72.5" y2="-68.4"/>
				<line class="st1" x1="0" y1="-54" x2="72.5" y2="-54"/>
				<line class="st1" x1="0" y1="-39.6" x2="72.5" y2="-39.6"/>
				<line class="st1" x1="0" y1="-25.2" x2="72.5" y2="-25.2"/>
				<line class="st1" x1="0" y1="-10.8" x2="72.5" y2="-10.8"/>
				<line class="st1" x1="0" y1="-61.2" x2="72.5" y2="-61.2"/>
				<line class="st1" x1="0" y1="-46.8" x2="72.5" y2="-46.8"/>
				<line class="st1" x1="0" y1="-32.4" x2="72.5" y2="-32.4"/>
				<line class="st1" x1="0" y1="-18" x2="72.5" y2="-18"/>
				<line class="st1" x1="0" y1="-3.6" x2="72.5" y2="-3.6"/>
			</g>
		</g>
	</g>
</pattern>
<pattern  y="200" width="72" height="72" patternUnits="userSpaceOnUse" id="SVGID_10_" viewBox="72.2 -72 72 72" style="overflow:visible;">
	<g>
		<rect x="72.2" y="-72" class="st0" width="72" height="72"/>
		<g>
			<rect x="72.2" y="-72" class="st0" width="72" height="72"/>
			<g>
				<line class="st2" x1="144" y1="-68.4" x2="216.5" y2="-68.4"/>
				<line class="st2" x1="144" y1="-54" x2="216.5" y2="-54"/>
				<line class="st2" x1="144" y1="-39.6" x2="216.5" y2="-39.6"/>
				<line class="st2" x1="144" y1="-25.2" x2="216.5" y2="-25.2"/>
				<line class="st2" x1="144" y1="-10.8" x2="216.5" y2="-10.8"/>
				<line class="st2" x1="144" y1="-61.2" x2="216.5" y2="-61.2"/>
				<line class="st2" x1="144" y1="-46.8" x2="216.5" y2="-46.8"/>
				<line class="st2" x1="144" y1="-32.4" x2="216.5" y2="-32.4"/>
				<line class="st2" x1="144" y1="-18" x2="216.5" y2="-18"/>
				<line class="st2" x1="144" y1="-3.6" x2="216.5" y2="-3.6"/>
			</g>
			<g>
				<line class="st2" x1="72" y1="-68.4" x2="144.5" y2="-68.4"/>
				<line class="st2" x1="72" y1="-54" x2="144.5" y2="-54"/>
				<line class="st2" x1="72" y1="-39.6" x2="144.5" y2="-39.6"/>
				<line class="st2" x1="72" y1="-25.2" x2="144.5" y2="-25.2"/>
				<line class="st2" x1="72" y1="-10.8" x2="144.5" y2="-10.8"/>
				<line class="st2" x1="72" y1="-61.2" x2="144.5" y2="-61.2"/>
				<line class="st2" x1="72" y1="-46.8" x2="144.5" y2="-46.8"/>
				<line class="st2" x1="72" y1="-32.4" x2="144.5" y2="-32.4"/>
				<line class="st2" x1="72" y1="-18" x2="144.5" y2="-18"/>
				<line class="st2" x1="72" y1="-3.6" x2="144.5" y2="-3.6"/>
			</g>
			<g>
				<line class="st2" x1="0" y1="-68.4" x2="72.5" y2="-68.4"/>
				<line class="st2" x1="0" y1="-54" x2="72.5" y2="-54"/>
				<line class="st2" x1="0" y1="-39.6" x2="72.5" y2="-39.6"/>
				<line class="st2" x1="0" y1="-25.2" x2="72.5" y2="-25.2"/>
				<line class="st2" x1="0" y1="-10.8" x2="72.5" y2="-10.8"/>
				<line class="st2" x1="0" y1="-61.2" x2="72.5" y2="-61.2"/>
				<line class="st2" x1="0" y1="-46.8" x2="72.5" y2="-46.8"/>
				<line class="st2" x1="0" y1="-32.4" x2="72.5" y2="-32.4"/>
				<line class="st2" x1="0" y1="-18" x2="72.5" y2="-18"/>
				<line class="st2" x1="0" y1="-3.6" x2="72.5" y2="-3.6"/>
			</g>
		</g>
	</g>
</pattern>
<pattern  y="200" width="72" height="72" patternUnits="userSpaceOnUse" id="SVGID_11_" viewBox="72.2 -72 72 72" style="overflow:visible;">
	<g>
		<rect x="72.2" y="-72" class="st0" width="72" height="72"/>
		<g>
			<rect x="72.2" y="-72" class="st0" width="72" height="72"/>
			<g>
				<line class="st2" x1="144" y1="-68.4" x2="216.5" y2="-68.4"/>
				<line class="st2" x1="144" y1="-54" x2="216.5" y2="-54"/>
				<line class="st2" x1="144" y1="-39.6" x2="216.5" y2="-39.6"/>
				<line class="st2" x1="144" y1="-25.2" x2="216.5" y2="-25.2"/>
				<line class="st2" x1="144" y1="-10.8" x2="216.5" y2="-10.8"/>
				<line class="st2" x1="144" y1="-61.2" x2="216.5" y2="-61.2"/>
				<line class="st2" x1="144" y1="-46.8" x2="216.5" y2="-46.8"/>
				<line class="st2" x1="144" y1="-32.4" x2="216.5" y2="-32.4"/>
				<line class="st2" x1="144" y1="-18" x2="216.5" y2="-18"/>
				<line class="st2" x1="144" y1="-3.6" x2="216.5" y2="-3.6"/>
			</g>
			<g>
				<line class="st2" x1="72" y1="-68.4" x2="144.5" y2="-68.4"/>
				<line class="st2" x1="72" y1="-54" x2="144.5" y2="-54"/>
				<line class="st2" x1="72" y1="-39.6" x2="144.5" y2="-39.6"/>
				<line class="st2" x1="72" y1="-25.2" x2="144.5" y2="-25.2"/>
				<line class="st2" x1="72" y1="-10.8" x2="144.5" y2="-10.8"/>
				<line class="st2" x1="72" y1="-61.2" x2="144.5" y2="-61.2"/>
				<line class="st2" x1="72" y1="-46.8" x2="144.5" y2="-46.8"/>
				<line class="st2" x1="72" y1="-32.4" x2="144.5" y2="-32.4"/>
				<line class="st2" x1="72" y1="-18" x2="144.5" y2="-18"/>
				<line class="st2" x1="72" y1="-3.6" x2="144.5" y2="-3.6"/>
			</g>
			<g>
				<line class="st2" x1="0" y1="-68.4" x2="72.5" y2="-68.4"/>
				<line class="st2" x1="0" y1="-54" x2="72.5" y2="-54"/>
				<line class="st2" x1="0" y1="-39.6" x2="72.5" y2="-39.6"/>
				<line class="st2" x1="0" y1="-25.2" x2="72.5" y2="-25.2"/>
				<line class="st2" x1="0" y1="-10.8" x2="72.5" y2="-10.8"/>
				<line class="st2" x1="0" y1="-61.2" x2="72.5" y2="-61.2"/>
				<line class="st2" x1="0" y1="-46.8" x2="72.5" y2="-46.8"/>
				<line class="st2" x1="0" y1="-32.4" x2="72.5" y2="-32.4"/>
				<line class="st2" x1="0" y1="-18" x2="72.5" y2="-18"/>
				<line class="st2" x1="0" y1="-3.6" x2="72.5" y2="-3.6"/>
			</g>
		</g>
	</g>
</pattern>
<pattern  y="200" width="72" height="72" patternUnits="userSpaceOnUse" id="SVGID_12_" viewBox="72.2 -72 72 72" style="overflow:visible;">
	<g>
		<rect x="72.2" y="-72" class="st0" width="72" height="72"/>
		<g>
			<rect x="72.2" y="-72" class="st0" width="72" height="72"/>
			<g>
				<line class="st2" x1="144" y1="-68.4" x2="216.5" y2="-68.4"/>
				<line class="st2" x1="144" y1="-54" x2="216.5" y2="-54"/>
				<line class="st2" x1="144" y1="-39.6" x2="216.5" y2="-39.6"/>
				<line class="st2" x1="144" y1="-25.2" x2="216.5" y2="-25.2"/>
				<line class="st2" x1="144" y1="-10.8" x2="216.5" y2="-10.8"/>
				<line class="st2" x1="144" y1="-61.2" x2="216.5" y2="-61.2"/>
				<line class="st2" x1="144" y1="-46.8" x2="216.5" y2="-46.8"/>
				<line class="st2" x1="144" y1="-32.4" x2="216.5" y2="-32.4"/>
				<line class="st2" x1="144" y1="-18" x2="216.5" y2="-18"/>
				<line class="st2" x1="144" y1="-3.6" x2="216.5" y2="-3.6"/>
			</g>
			<g>
				<line class="st2" x1="72" y1="-68.4" x2="144.5" y2="-68.4"/>
				<line class="st2" x1="72" y1="-54" x2="144.5" y2="-54"/>
				<line class="st2" x1="72" y1="-39.6" x2="144.5" y2="-39.6"/>
				<line class="st2" x1="72" y1="-25.2" x2="144.5" y2="-25.2"/>
				<line class="st2" x1="72" y1="-10.8" x2="144.5" y2="-10.8"/>
				<line class="st2" x1="72" y1="-61.2" x2="144.5" y2="-61.2"/>
				<line class="st2" x1="72" y1="-46.8" x2="144.5" y2="-46.8"/>
				<line class="st2" x1="72" y1="-32.4" x2="144.5" y2="-32.4"/>
				<line class="st2" x1="72" y1="-18" x2="144.5" y2="-18"/>
				<line class="st2" x1="72" y1="-3.6" x2="144.5" y2="-3.6"/>
			</g>
			<g>
				<line class="st2" x1="0" y1="-68.4" x2="72.5" y2="-68.4"/>
				<line class="st2" x1="0" y1="-54" x2="72.5" y2="-54"/>
				<line class="st2" x1="0" y1="-39.6" x2="72.5" y2="-39.6"/>
				<line class="st2" x1="0" y1="-25.2" x2="72.5" y2="-25.2"/>
				<line class="st2" x1="0" y1="-10.8" x2="72.5" y2="-10.8"/>
				<line class="st2" x1="0" y1="-61.2" x2="72.5" y2="-61.2"/>
				<line class="st2" x1="0" y1="-46.8" x2="72.5" y2="-46.8"/>
				<line class="st2" x1="0" y1="-32.4" x2="72.5" y2="-32.4"/>
				<line class="st2" x1="0" y1="-18" x2="72.5" y2="-18"/>
				<line class="st2" x1="0" y1="-3.6" x2="72.5" y2="-3.6"/>
			</g>
		</g>
	</g>
</pattern>
<pattern  y="200" width="72" height="72" patternUnits="userSpaceOnUse" id="SVGID_13_" viewBox="72.2 -72 72 72" style="overflow:visible;">
	<g>
		<rect x="72.2" y="-72" class="st0" width="72" height="72"/>
		<g>
			<rect x="72.2" y="-72" class="st0" width="72" height="72"/>
			<g>
				<line class="st2" x1="144" y1="-68.4" x2="216.5" y2="-68.4"/>
				<line class="st2" x1="144" y1="-54" x2="216.5" y2="-54"/>
				<line class="st2" x1="144" y1="-39.6" x2="216.5" y2="-39.6"/>
				<line class="st2" x1="144" y1="-25.2" x2="216.5" y2="-25.2"/>
				<line class="st2" x1="144" y1="-10.8" x2="216.5" y2="-10.8"/>
				<line class="st2" x1="144" y1="-61.2" x2="216.5" y2="-61.2"/>
				<line class="st2" x1="144" y1="-46.8" x2="216.5" y2="-46.8"/>
				<line class="st2" x1="144" y1="-32.4" x2="216.5" y2="-32.4"/>
				<line class="st2" x1="144" y1="-18" x2="216.5" y2="-18"/>
				<line class="st2" x1="144" y1="-3.6" x2="216.5" y2="-3.6"/>
			</g>
			<g>
				<line class="st2" x1="72" y1="-68.4" x2="144.5" y2="-68.4"/>
				<line class="st2" x1="72" y1="-54" x2="144.5" y2="-54"/>
				<line class="st2" x1="72" y1="-39.6" x2="144.5" y2="-39.6"/>
				<line class="st2" x1="72" y1="-25.2" x2="144.5" y2="-25.2"/>
				<line class="st2" x1="72" y1="-10.8" x2="144.5" y2="-10.8"/>
				<line class="st2" x1="72" y1="-61.2" x2="144.5" y2="-61.2"/>
				<line class="st2" x1="72" y1="-46.8" x2="144.5" y2="-46.8"/>
				<line class="st2" x1="72" y1="-32.4" x2="144.5" y2="-32.4"/>
				<line class="st2" x1="72" y1="-18" x2="144.5" y2="-18"/>
				<line class="st2" x1="72" y1="-3.6" x2="144.5" y2="-3.6"/>
			</g>
			<g>
				<line class="st2" x1="0" y1="-68.4" x2="72.5" y2="-68.4"/>
				<line class="st2" x1="0" y1="-54" x2="72.5" y2="-54"/>
				<line class="st2" x1="0" y1="-39.6" x2="72.5" y2="-39.6"/>
				<line class="st2" x1="0" y1="-25.2" x2="72.5" y2="-25.2"/>
				<line class="st2" x1="0" y1="-10.8" x2="72.5" y2="-10.8"/>
				<line class="st2" x1="0" y1="-61.2" x2="72.5" y2="-61.2"/>
				<line class="st2" x1="0" y1="-46.8" x2="72.5" y2="-46.8"/>
				<line class="st2" x1="0" y1="-32.4" x2="72.5" y2="-32.4"/>
				<line class="st2" x1="0" y1="-18" x2="72.5" y2="-18"/>
				<line class="st2" x1="0" y1="-3.6" x2="72.5" y2="-3.6"/>
			</g>
		</g>
	</g>
</pattern>
<pattern  y="200" width="72" height="72" patternUnits="userSpaceOnUse" id="SVGID_14_" viewBox="72.2 -72 72 72" style="overflow:visible;">
	<g>
		<rect x="72.2" y="-72" class="st0" width="72" height="72"/>
		<g>
			<rect x="72.2" y="-72" class="st0" width="72" height="72"/>
			<g>
				<line class="st2" x1="144" y1="-68.4" x2="216.5" y2="-68.4"/>
				<line class="st2" x1="144" y1="-54" x2="216.5" y2="-54"/>
				<line class="st2" x1="144" y1="-39.6" x2="216.5" y2="-39.6"/>
				<line class="st2" x1="144" y1="-25.2" x2="216.5" y2="-25.2"/>
				<line class="st2" x1="144" y1="-10.8" x2="216.5" y2="-10.8"/>
				<line class="st2" x1="144" y1="-61.2" x2="216.5" y2="-61.2"/>
				<line class="st2" x1="144" y1="-46.8" x2="216.5" y2="-46.8"/>
				<line class="st2" x1="144" y1="-32.4" x2="216.5" y2="-32.4"/>
				<line class="st2" x1="144" y1="-18" x2="216.5" y2="-18"/>
				<line class="st2" x1="144" y1="-3.6" x2="216.5" y2="-3.6"/>
			</g>
			<g>
				<line class="st2" x1="72" y1="-68.4" x2="144.5" y2="-68.4"/>
				<line class="st2" x1="72" y1="-54" x2="144.5" y2="-54"/>
				<line class="st2" x1="72" y1="-39.6" x2="144.5" y2="-39.6"/>
				<line class="st2" x1="72" y1="-25.2" x2="144.5" y2="-25.2"/>
				<line class="st2" x1="72" y1="-10.8" x2="144.5" y2="-10.8"/>
				<line class="st2" x1="72" y1="-61.2" x2="144.5" y2="-61.2"/>
				<line class="st2" x1="72" y1="-46.8" x2="144.5" y2="-46.8"/>
				<line class="st2" x1="72" y1="-32.4" x2="144.5" y2="-32.4"/>
				<line class="st2" x1="72" y1="-18" x2="144.5" y2="-18"/>
				<line class="st2" x1="72" y1="-3.6" x2="144.5" y2="-3.6"/>
			</g>
			<g>
				<line class="st2" x1="0" y1="-68.4" x2="72.5" y2="-68.4"/>
				<line class="st2" x1="0" y1="-54" x2="72.5" y2="-54"/>
				<line class="st2" x1="0" y1="-39.6" x2="72.5" y2="-39.6"/>
				<line class="st2" x1="0" y1="-25.2" x2="72.5" y2="-25.2"/>
				<line class="st2" x1="0" y1="-10.8" x2="72.5" y2="-10.8"/>
				<line class="st2" x1="0" y1="-61.2" x2="72.5" y2="-61.2"/>
				<line class="st2" x1="0" y1="-46.8" x2="72.5" y2="-46.8"/>
				<line class="st2" x1="0" y1="-32.4" x2="72.5" y2="-32.4"/>
				<line class="st2" x1="0" y1="-18" x2="72.5" y2="-18"/>
				<line class="st2" x1="0" y1="-3.6" x2="72.5" y2="-3.6"/>
			</g>
		</g>
	</g>
</pattern>
<pattern  y="200" width="72" height="72" patternUnits="userSpaceOnUse" id="SVGID_15_" viewBox="72.2 -72 72 72" style="overflow:visible;">
	<g>
		<rect x="72.2" y="-72" class="st0" width="72" height="72"/>
		<g>
			<rect x="72.2" y="-72" class="st0" width="72" height="72"/>
			<g>
				<line class="st2" x1="144" y1="-68.4" x2="216.5" y2="-68.4"/>
				<line class="st2" x1="144" y1="-54" x2="216.5" y2="-54"/>
				<line class="st2" x1="144" y1="-39.6" x2="216.5" y2="-39.6"/>
				<line class="st2" x1="144" y1="-25.2" x2="216.5" y2="-25.2"/>
				<line class="st2" x1="144" y1="-10.8" x2="216.5" y2="-10.8"/>
				<line class="st2" x1="144" y1="-61.2" x2="216.5" y2="-61.2"/>
				<line class="st2" x1="144" y1="-46.8" x2="216.5" y2="-46.8"/>
				<line class="st2" x1="144" y1="-32.4" x2="216.5" y2="-32.4"/>
				<line class="st2" x1="144" y1="-18" x2="216.5" y2="-18"/>
				<line class="st2" x1="144" y1="-3.6" x2="216.5" y2="-3.6"/>
			</g>
			<g>
				<line class="st2" x1="72" y1="-68.4" x2="144.5" y2="-68.4"/>
				<line class="st2" x1="72" y1="-54" x2="144.5" y2="-54"/>
				<line class="st2" x1="72" y1="-39.6" x2="144.5" y2="-39.6"/>
				<line class="st2" x1="72" y1="-25.2" x2="144.5" y2="-25.2"/>
				<line class="st2" x1="72" y1="-10.8" x2="144.5" y2="-10.8"/>
				<line class="st2" x1="72" y1="-61.2" x2="144.5" y2="-61.2"/>
				<line class="st2" x1="72" y1="-46.8" x2="144.5" y2="-46.8"/>
				<line class="st2" x1="72" y1="-32.4" x2="144.5" y2="-32.4"/>
				<line class="st2" x1="72" y1="-18" x2="144.5" y2="-18"/>
				<line class="st2" x1="72" y1="-3.6" x2="144.5" y2="-3.6"/>
			</g>
			<g>
				<line class="st2" x1="0" y1="-68.4" x2="72.5" y2="-68.4"/>
				<line class="st2" x1="0" y1="-54" x2="72.5" y2="-54"/>
				<line class="st2" x1="0" y1="-39.6" x2="72.5" y2="-39.6"/>
				<line class="st2" x1="0" y1="-25.2" x2="72.5" y2="-25.2"/>
				<line class="st2" x1="0" y1="-10.8" x2="72.5" y2="-10.8"/>
				<line class="st2" x1="0" y1="-61.2" x2="72.5" y2="-61.2"/>
				<line class="st2" x1="0" y1="-46.8" x2="72.5" y2="-46.8"/>
				<line class="st2" x1="0" y1="-32.4" x2="72.5" y2="-32.4"/>
				<line class="st2" x1="0" y1="-18" x2="72.5" y2="-18"/>
				<line class="st2" x1="0" y1="-3.6" x2="72.5" y2="-3.6"/>
			</g>
		</g>
	</g>
</pattern>
<pattern  y="200" width="72" height="72" patternUnits="userSpaceOnUse" id="SVGID_16_" viewBox="72.2 -72 72 72" style="overflow:visible;">
	<g>
		<rect x="72.2" y="-72" class="st0" width="72" height="72"/>
		<g>
			<rect x="72.2" y="-72" class="st0" width="72" height="72"/>
			<g>
				<line class="st2" x1="144" y1="-68.4" x2="216.5" y2="-68.4"/>
				<line class="st2" x1="144" y1="-54" x2="216.5" y2="-54"/>
				<line class="st2" x1="144" y1="-39.6" x2="216.5" y2="-39.6"/>
				<line class="st2" x1="144" y1="-25.2" x2="216.5" y2="-25.2"/>
				<line class="st2" x1="144" y1="-10.8" x2="216.5" y2="-10.8"/>
				<line class="st2" x1="144" y1="-61.2" x2="216.5" y2="-61.2"/>
				<line class="st2" x1="144" y1="-46.8" x2="216.5" y2="-46.8"/>
				<line class="st2" x1="144" y1="-32.4" x2="216.5" y2="-32.4"/>
				<line class="st2" x1="144" y1="-18" x2="216.5" y2="-18"/>
				<line class="st2" x1="144" y1="-3.6" x2="216.5" y2="-3.6"/>
			</g>
			<g>
				<line class="st2" x1="72" y1="-68.4" x2="144.5" y2="-68.4"/>
				<line class="st2" x1="72" y1="-54" x2="144.5" y2="-54"/>
				<line class="st2" x1="72" y1="-39.6" x2="144.5" y2="-39.6"/>
				<line class="st2" x1="72" y1="-25.2" x2="144.5" y2="-25.2"/>
				<line class="st2" x1="72" y1="-10.8" x2="144.5" y2="-10.8"/>
				<line class="st2" x1="72" y1="-61.2" x2="144.5" y2="-61.2"/>
				<line class="st2" x1="72" y1="-46.8" x2="144.5" y2="-46.8"/>
				<line class="st2" x1="72" y1="-32.4" x2="144.5" y2="-32.4"/>
				<line class="st2" x1="72" y1="-18" x2="144.5" y2="-18"/>
				<line class="st2" x1="72" y1="-3.6" x2="144.5" y2="-3.6"/>
			</g>
			<g>
				<line class="st2" x1="0" y1="-68.4" x2="72.5" y2="-68.4"/>
				<line class="st2" x1="0" y1="-54" x2="72.5" y2="-54"/>
				<line class="st2" x1="0" y1="-39.6" x2="72.5" y2="-39.6"/>
				<line class="st2" x1="0" y1="-25.2" x2="72.5" y2="-25.2"/>
				<line class="st2" x1="0" y1="-10.8" x2="72.5" y2="-10.8"/>
				<line class="st2" x1="0" y1="-61.2" x2="72.5" y2="-61.2"/>
				<line class="st2" x1="0" y1="-46.8" x2="72.5" y2="-46.8"/>
				<line class="st2" x1="0" y1="-32.4" x2="72.5" y2="-32.4"/>
				<line class="st2" x1="0" y1="-18" x2="72.5" y2="-18"/>
				<line class="st2" x1="0" y1="-3.6" x2="72.5" y2="-3.6"/>
			</g>
		</g>
	</g>
</pattern>
<pattern  y="200" width="72" height="72" patternUnits="userSpaceOnUse" id="SVGID_2_" viewBox="72.2 -72 72 72" style="overflow:visible;">
	<g>
		<rect x="72.2" y="-72" class="st0" width="72" height="72"/>
		<g>
			<rect x="72.2" y="-72" class="st0" width="72" height="72"/>
			<g>
				<line class="st1" x1="144" y1="-68.4" x2="216.5" y2="-68.4"/>
				<line class="st1" x1="144" y1="-54" x2="216.5" y2="-54"/>
				<line class="st1" x1="144" y1="-39.6" x2="216.5" y2="-39.6"/>
				<line class="st1" x1="144" y1="-25.2" x2="216.5" y2="-25.2"/>
				<line class="st1" x1="144" y1="-10.8" x2="216.5" y2="-10.8"/>
				<line class="st1" x1="144" y1="-61.2" x2="216.5" y2="-61.2"/>
				<line class="st1" x1="144" y1="-46.8" x2="216.5" y2="-46.8"/>
				<line class="st1" x1="144" y1="-32.4" x2="216.5" y2="-32.4"/>
				<line class="st1" x1="144" y1="-18" x2="216.5" y2="-18"/>
				<line class="st1" x1="144" y1="-3.6" x2="216.5" y2="-3.6"/>
			</g>
			<g>
				<line class="st1" x1="72" y1="-68.4" x2="144.5" y2="-68.4"/>
				<line class="st1" x1="72" y1="-54" x2="144.5" y2="-54"/>
				<line class="st1" x1="72" y1="-39.6" x2="144.5" y2="-39.6"/>
				<line class="st1" x1="72" y1="-25.2" x2="144.5" y2="-25.2"/>
				<line class="st1" x1="72" y1="-10.8" x2="144.5" y2="-10.8"/>
				<line class="st1" x1="72" y1="-61.2" x2="144.5" y2="-61.2"/>
				<line class="st1" x1="72" y1="-46.8" x2="144.5" y2="-46.8"/>
				<line class="st1" x1="72" y1="-32.4" x2="144.5" y2="-32.4"/>
				<line class="st1" x1="72" y1="-18" x2="144.5" y2="-18"/>
				<line class="st1" x1="72" y1="-3.6" x2="144.5" y2="-3.6"/>
			</g>
			<g>
				<line class="st1" x1="0" y1="-68.4" x2="72.5" y2="-68.4"/>
				<line class="st1" x1="0" y1="-54" x2="72.5" y2="-54"/>
				<line class="st1" x1="0" y1="-39.6" x2="72.5" y2="-39.6"/>
				<line class="st1" x1="0" y1="-25.2" x2="72.5" y2="-25.2"/>
				<line class="st1" x1="0" y1="-10.8" x2="72.5" y2="-10.8"/>
				<line class="st1" x1="0" y1="-61.2" x2="72.5" y2="-61.2"/>
				<line class="st1" x1="0" y1="-46.8" x2="72.5" y2="-46.8"/>
				<line class="st1" x1="0" y1="-32.4" x2="72.5" y2="-32.4"/>
				<line class="st1" x1="0" y1="-18" x2="72.5" y2="-18"/>
				<line class="st1" x1="0" y1="-3.6" x2="72.5" y2="-3.6"/>
			</g>
		</g>
	</g>
</pattern>
<pattern  y="200" width="72" height="72" patternUnits="userSpaceOnUse" id="SVGID_3_" viewBox="72.2 -72 72 72" style="overflow:visible;">
	<g>
		<rect x="72.2" y="-72" class="st0" width="72" height="72"/>
		<g>
			<rect x="72.2" y="-72" class="st0" width="72" height="72"/>
			<g>
				<line class="st1" x1="144" y1="-68.4" x2="216.5" y2="-68.4"/>
				<line class="st1" x1="144" y1="-54" x2="216.5" y2="-54"/>
				<line class="st1" x1="144" y1="-39.6" x2="216.5" y2="-39.6"/>
				<line class="st1" x1="144" y1="-25.2" x2="216.5" y2="-25.2"/>
				<line class="st1" x1="144" y1="-10.8" x2="216.5" y2="-10.8"/>
				<line class="st1" x1="144" y1="-61.2" x2="216.5" y2="-61.2"/>
				<line class="st1" x1="144" y1="-46.8" x2="216.5" y2="-46.8"/>
				<line class="st1" x1="144" y1="-32.4" x2="216.5" y2="-32.4"/>
				<line class="st1" x1="144" y1="-18" x2="216.5" y2="-18"/>
				<line class="st1" x1="144" y1="-3.6" x2="216.5" y2="-3.6"/>
			</g>
			<g>
				<line class="st1" x1="72" y1="-68.4" x2="144.5" y2="-68.4"/>
				<line class="st1" x1="72" y1="-54" x2="144.5" y2="-54"/>
				<line class="st1" x1="72" y1="-39.6" x2="144.5" y2="-39.6"/>
				<line class="st1" x1="72" y1="-25.2" x2="144.5" y2="-25.2"/>
				<line class="st1" x1="72" y1="-10.8" x2="144.5" y2="-10.8"/>
				<line class="st1" x1="72" y1="-61.2" x2="144.5" y2="-61.2"/>
				<line class="st1" x1="72" y1="-46.8" x2="144.5" y2="-46.8"/>
				<line class="st1" x1="72" y1="-32.4" x2="144.5" y2="-32.4"/>
				<line class="st1" x1="72" y1="-18" x2="144.5" y2="-18"/>
				<line class="st1" x1="72" y1="-3.6" x2="144.5" y2="-3.6"/>
			</g>
			<g>
				<line class="st1" x1="0" y1="-68.4" x2="72.5" y2="-68.4"/>
				<line class="st1" x1="0" y1="-54" x2="72.5" y2="-54"/>
				<line class="st1" x1="0" y1="-39.6" x2="72.5" y2="-39.6"/>
				<line class="st1" x1="0" y1="-25.2" x2="72.5" y2="-25.2"/>
				<line class="st1" x1="0" y1="-10.8" x2="72.5" y2="-10.8"/>
				<line class="st1" x1="0" y1="-61.2" x2="72.5" y2="-61.2"/>
				<line class="st1" x1="0" y1="-46.8" x2="72.5" y2="-46.8"/>
				<line class="st1" x1="0" y1="-32.4" x2="72.5" y2="-32.4"/>
				<line class="st1" x1="0" y1="-18" x2="72.5" y2="-18"/>
				<line class="st1" x1="0" y1="-3.6" x2="72.5" y2="-3.6"/>
			</g>
		</g>
	</g>
</pattern>
<pattern  y="200" width="72" height="72" patternUnits="userSpaceOnUse" id="SVGID_4_" viewBox="72.2 -72 72 72" style="overflow:visible;">
	<g>
		<rect x="72.2" y="-72" class="st0" width="72" height="72"/>
		<g>
			<rect x="72.2" y="-72" class="st0" width="72" height="72"/>
			<g>
				<line class="st1" x1="144" y1="-68.4" x2="216.5" y2="-68.4"/>
				<line class="st1" x1="144" y1="-54" x2="216.5" y2="-54"/>
				<line class="st1" x1="144" y1="-39.6" x2="216.5" y2="-39.6"/>
				<line class="st1" x1="144" y1="-25.2" x2="216.5" y2="-25.2"/>
				<line class="st1" x1="144" y1="-10.8" x2="216.5" y2="-10.8"/>
				<line class="st1" x1="144" y1="-61.2" x2="216.5" y2="-61.2"/>
				<line class="st1" x1="144" y1="-46.8" x2="216.5" y2="-46.8"/>
				<line class="st1" x1="144" y1="-32.4" x2="216.5" y2="-32.4"/>
				<line class="st1" x1="144" y1="-18" x2="216.5" y2="-18"/>
				<line class="st1" x1="144" y1="-3.6" x2="216.5" y2="-3.6"/>
			</g>
			<g>
				<line class="st1" x1="72" y1="-68.4" x2="144.5" y2="-68.4"/>
				<line class="st1" x1="72" y1="-54" x2="144.5" y2="-54"/>
				<line class="st1" x1="72" y1="-39.6" x2="144.5" y2="-39.6"/>
				<line class="st1" x1="72" y1="-25.2" x2="144.5" y2="-25.2"/>
				<line class="st1" x1="72" y1="-10.8" x2="144.5" y2="-10.8"/>
				<line class="st1" x1="72" y1="-61.2" x2="144.5" y2="-61.2"/>
				<line class="st1" x1="72" y1="-46.8" x2="144.5" y2="-46.8"/>
				<line class="st1" x1="72" y1="-32.4" x2="144.5" y2="-32.4"/>
				<line class="st1" x1="72" y1="-18" x2="144.5" y2="-18"/>
				<line class="st1" x1="72" y1="-3.6" x2="144.5" y2="-3.6"/>
			</g>
			<g>
				<line class="st1" x1="0" y1="-68.4" x2="72.5" y2="-68.4"/>
				<line class="st1" x1="0" y1="-54" x2="72.5" y2="-54"/>
				<line class="st1" x1="0" y1="-39.6" x2="72.5" y2="-39.6"/>
				<line class="st1" x1="0" y1="-25.2" x2="72.5" y2="-25.2"/>
				<line class="st1" x1="0" y1="-10.8" x2="72.5" y2="-10.8"/>
				<line class="st1" x1="0" y1="-61.2" x2="72.5" y2="-61.2"/>
				<line class="st1" x1="0" y1="-46.8" x2="72.5" y2="-46.8"/>
				<line class="st1" x1="0" y1="-32.4" x2="72.5" y2="-32.4"/>
				<line class="st1" x1="0" y1="-18" x2="72.5" y2="-18"/>
				<line class="st1" x1="0" y1="-3.6" x2="72.5" y2="-3.6"/>
			</g>
		</g>
	</g>
</pattern>
<pattern  y="200" width="72" height="72" patternUnits="userSpaceOnUse" id="SVGID_5_" viewBox="72.2 -72 72 72" style="overflow:visible;">
	<g>
		<rect x="72.2" y="-72" class="st0" width="72" height="72"/>
		<g>
			<rect x="72.2" y="-72" class="st0" width="72" height="72"/>
			<g>
				<line class="st1" x1="144" y1="-68.4" x2="216.5" y2="-68.4"/>
				<line class="st1" x1="144" y1="-54" x2="216.5" y2="-54"/>
				<line class="st1" x1="144" y1="-39.6" x2="216.5" y2="-39.6"/>
				<line class="st1" x1="144" y1="-25.2" x2="216.5" y2="-25.2"/>
				<line class="st1" x1="144" y1="-10.8" x2="216.5" y2="-10.8"/>
				<line class="st1" x1="144" y1="-61.2" x2="216.5" y2="-61.2"/>
				<line class="st1" x1="144" y1="-46.8" x2="216.5" y2="-46.8"/>
				<line class="st1" x1="144" y1="-32.4" x2="216.5" y2="-32.4"/>
				<line class="st1" x1="144" y1="-18" x2="216.5" y2="-18"/>
				<line class="st1" x1="144" y1="-3.6" x2="216.5" y2="-3.6"/>
			</g>
			<g>
				<line class="st1" x1="72" y1="-68.4" x2="144.5" y2="-68.4"/>
				<line class="st1" x1="72" y1="-54" x2="144.5" y2="-54"/>
				<line class="st1" x1="72" y1="-39.6" x2="144.5" y2="-39.6"/>
				<line class="st1" x1="72" y1="-25.2" x2="144.5" y2="-25.2"/>
				<line class="st1" x1="72" y1="-10.8" x2="144.5" y2="-10.8"/>
				<line class="st1" x1="72" y1="-61.2" x2="144.5" y2="-61.2"/>
				<line class="st1" x1="72" y1="-46.8" x2="144.5" y2="-46.8"/>
				<line class="st1" x1="72" y1="-32.4" x2="144.5" y2="-32.4"/>
				<line class="st1" x1="72" y1="-18" x2="144.5" y2="-18"/>
				<line class="st1" x1="72" y1="-3.6" x2="144.5" y2="-3.6"/>
			</g>
			<g>
				<line class="st1" x1="0" y1="-68.4" x2="72.5" y2="-68.4"/>
				<line class="st1" x1="0" y1="-54" x2="72.5" y2="-54"/>
				<line class="st1" x1="0" y1="-39.6" x2="72.5" y2="-39.6"/>
				<line class="st1" x1="0" y1="-25.2" x2="72.5" y2="-25.2"/>
				<line class="st1" x1="0" y1="-10.8" x2="72.5" y2="-10.8"/>
				<line class="st1" x1="0" y1="-61.2" x2="72.5" y2="-61.2"/>
				<line class="st1" x1="0" y1="-46.8" x2="72.5" y2="-46.8"/>
				<line class="st1" x1="0" y1="-32.4" x2="72.5" y2="-32.4"/>
				<line class="st1" x1="0" y1="-18" x2="72.5" y2="-18"/>
				<line class="st1" x1="0" y1="-3.6" x2="72.5" y2="-3.6"/>
			</g>
		</g>
	</g>
</pattern>
<pattern  y="200" width="72" height="72" patternUnits="userSpaceOnUse" id="SVGID_6_" viewBox="72.2 -72 72 72" style="overflow:visible;">
	<g>
		<rect x="72.2" y="-72" class="st0" width="72" height="72"/>
		<g>
			<rect x="72.2" y="-72" class="st0" width="72" height="72"/>
			<g>
				<line class="st1" x1="144" y1="-68.4" x2="216.5" y2="-68.4"/>
				<line class="st1" x1="144" y1="-54" x2="216.5" y2="-54"/>
				<line class="st1" x1="144" y1="-39.6" x2="216.5" y2="-39.6"/>
				<line class="st1" x1="144" y1="-25.2" x2="216.5" y2="-25.2"/>
				<line class="st1" x1="144" y1="-10.8" x2="216.5" y2="-10.8"/>
				<line class="st1" x1="144" y1="-61.2" x2="216.5" y2="-61.2"/>
				<line class="st1" x1="144" y1="-46.8" x2="216.5" y2="-46.8"/>
				<line class="st1" x1="144" y1="-32.4" x2="216.5" y2="-32.4"/>
				<line class="st1" x1="144" y1="-18" x2="216.5" y2="-18"/>
				<line class="st1" x1="144" y1="-3.6" x2="216.5" y2="-3.6"/>
			</g>
			<g>
				<line class="st1" x1="72" y1="-68.4" x2="144.5" y2="-68.4"/>
				<line class="st1" x1="72" y1="-54" x2="144.5" y2="-54"/>
				<line class="st1" x1="72" y1="-39.6" x2="144.5" y2="-39.6"/>
				<line class="st1" x1="72" y1="-25.2" x2="144.5" y2="-25.2"/>
				<line class="st1" x1="72" y1="-10.8" x2="144.5" y2="-10.8"/>
				<line class="st1" x1="72" y1="-61.2" x2="144.5" y2="-61.2"/>
				<line class="st1" x1="72" y1="-46.8" x2="144.5" y2="-46.8"/>
				<line class="st1" x1="72" y1="-32.4" x2="144.5" y2="-32.4"/>
				<line class="st1" x1="72" y1="-18" x2="144.5" y2="-18"/>
				<line class="st1" x1="72" y1="-3.6" x2="144.5" y2="-3.6"/>
			</g>
			<g>
				<line class="st1" x1="0" y1="-68.4" x2="72.5" y2="-68.4"/>
				<line class="st1" x1="0" y1="-54" x2="72.5" y2="-54"/>
				<line class="st1" x1="0" y1="-39.6" x2="72.5" y2="-39.6"/>
				<line class="st1" x1="0" y1="-25.2" x2="72.5" y2="-25.2"/>
				<line class="st1" x1="0" y1="-10.8" x2="72.5" y2="-10.8"/>
				<line class="st1" x1="0" y1="-61.2" x2="72.5" y2="-61.2"/>
				<line class="st1" x1="0" y1="-46.8" x2="72.5" y2="-46.8"/>
				<line class="st1" x1="0" y1="-32.4" x2="72.5" y2="-32.4"/>
				<line class="st1" x1="0" y1="-18" x2="72.5" y2="-18"/>
				<line class="st1" x1="0" y1="-3.6" x2="72.5" y2="-3.6"/>
			</g>
		</g>
	</g>
</pattern>
<pattern  y="200" width="72" height="72" patternUnits="userSpaceOnUse" id="SVGID_7_" viewBox="72.2 -72 72 72" style="overflow:visible;">
	<g>
		<rect x="72.2" y="-72" class="st0" width="72" height="72"/>
		<g>
			<rect x="72.2" y="-72" class="st0" width="72" height="72"/>
			<g>
				<line class="st1" x1="144" y1="-68.4" x2="216.5" y2="-68.4"/>
				<line class="st1" x1="144" y1="-54" x2="216.5" y2="-54"/>
				<line class="st1" x1="144" y1="-39.6" x2="216.5" y2="-39.6"/>
				<line class="st1" x1="144" y1="-25.2" x2="216.5" y2="-25.2"/>
				<line class="st1" x1="144" y1="-10.8" x2="216.5" y2="-10.8"/>
				<line class="st1" x1="144" y1="-61.2" x2="216.5" y2="-61.2"/>
				<line class="st1" x1="144" y1="-46.8" x2="216.5" y2="-46.8"/>
				<line class="st1" x1="144" y1="-32.4" x2="216.5" y2="-32.4"/>
				<line class="st1" x1="144" y1="-18" x2="216.5" y2="-18"/>
				<line class="st1" x1="144" y1="-3.6" x2="216.5" y2="-3.6"/>
			</g>
			<g>
				<line class="st1" x1="72" y1="-68.4" x2="144.5" y2="-68.4"/>
				<line class="st1" x1="72" y1="-54" x2="144.5" y2="-54"/>
				<line class="st1" x1="72" y1="-39.6" x2="144.5" y2="-39.6"/>
				<line class="st1" x1="72" y1="-25.2" x2="144.5" y2="-25.2"/>
				<line class="st1" x1="72" y1="-10.8" x2="144.5" y2="-10.8"/>
				<line class="st1" x1="72" y1="-61.2" x2="144.5" y2="-61.2"/>
				<line class="st1" x1="72" y1="-46.8" x2="144.5" y2="-46.8"/>
				<line class="st1" x1="72" y1="-32.4" x2="144.5" y2="-32.4"/>
				<line class="st1" x1="72" y1="-18" x2="144.5" y2="-18"/>
				<line class="st1" x1="72" y1="-3.6" x2="144.5" y2="-3.6"/>
			</g>
			<g>
				<line class="st1" x1="0" y1="-68.4" x2="72.5" y2="-68.4"/>
				<line class="st1" x1="0" y1="-54" x2="72.5" y2="-54"/>
				<line class="st1" x1="0" y1="-39.6" x2="72.5" y2="-39.6"/>
				<line class="st1" x1="0" y1="-25.2" x2="72.5" y2="-25.2"/>
				<line class="st1" x1="0" y1="-10.8" x2="72.5" y2="-10.8"/>
				<line class="st1" x1="0" y1="-61.2" x2="72.5" y2="-61.2"/>
				<line class="st1" x1="0" y1="-46.8" x2="72.5" y2="-46.8"/>
				<line class="st1" x1="0" y1="-32.4" x2="72.5" y2="-32.4"/>
				<line class="st1" x1="0" y1="-18" x2="72.5" y2="-18"/>
				<line class="st1" x1="0" y1="-3.6" x2="72.5" y2="-3.6"/>
			</g>
		</g>
	</g>
</pattern>
<pattern  y="200" width="72" height="72" patternUnits="userSpaceOnUse" id="SVGID_8_" viewBox="72.2 -72 72 72" style="overflow:visible;">
	<g>
		<rect x="72.2" y="-72" class="st0" width="72" height="72"/>
		<g>
			<rect x="72.2" y="-72" class="st0" width="72" height="72"/>
			<g>
				<line class="st1" x1="144" y1="-68.4" x2="216.5" y2="-68.4"/>
				<line class="st1" x1="144" y1="-54" x2="216.5" y2="-54"/>
				<line class="st1" x1="144" y1="-39.6" x2="216.5" y2="-39.6"/>
				<line class="st1" x1="144" y1="-25.2" x2="216.5" y2="-25.2"/>
				<line class="st1" x1="144" y1="-10.8" x2="216.5" y2="-10.8"/>
				<line class="st1" x1="144" y1="-61.2" x2="216.5" y2="-61.2"/>
				<line class="st1" x1="144" y1="-46.8" x2="216.5" y2="-46.8"/>
				<line class="st1" x1="144" y1="-32.4" x2="216.5" y2="-32.4"/>
				<line class="st1" x1="144" y1="-18" x2="216.5" y2="-18"/>
				<line class="st1" x1="144" y1="-3.6" x2="216.5" y2="-3.6"/>
			</g>
			<g>
				<line class="st1" x1="72" y1="-68.4" x2="144.5" y2="-68.4"/>
				<line class="st1" x1="72" y1="-54" x2="144.5" y2="-54"/>
				<line class="st1" x1="72" y1="-39.6" x2="144.5" y2="-39.6"/>
				<line class="st1" x1="72" y1="-25.2" x2="144.5" y2="-25.2"/>
				<line class="st1" x1="72" y1="-10.8" x2="144.5" y2="-10.8"/>
				<line class="st1" x1="72" y1="-61.2" x2="144.5" y2="-61.2"/>
				<line class="st1" x1="72" y1="-46.8" x2="144.5" y2="-46.8"/>
				<line class="st1" x1="72" y1="-32.4" x2="144.5" y2="-32.4"/>
				<line class="st1" x1="72" y1="-18" x2="144.5" y2="-18"/>
				<line class="st1" x1="72" y1="-3.6" x2="144.5" y2="-3.6"/>
			</g>
			<g>
				<line class="st1" x1="0" y1="-68.4" x2="72.5" y2="-68.4"/>
				<line class="st1" x1="0" y1="-54" x2="72.5" y2="-54"/>
				<line class="st1" x1="0" y1="-39.6" x2="72.5" y2="-39.6"/>
				<line class="st1" x1="0" y1="-25.2" x2="72.5" y2="-25.2"/>
				<line class="st1" x1="0" y1="-10.8" x2="72.5" y2="-10.8"/>
				<line class="st1" x1="0" y1="-61.2" x2="72.5" y2="-61.2"/>
				<line class="st1" x1="0" y1="-46.8" x2="72.5" y2="-46.8"/>
				<line class="st1" x1="0" y1="-32.4" x2="72.5" y2="-32.4"/>
				<line class="st1" x1="0" y1="-18" x2="72.5" y2="-18"/>
				<line class="st1" x1="0" y1="-3.6" x2="72.5" y2="-3.6"/>
			</g>
		</g>
	</g>
</pattern>
<pattern  y="200" width="72" height="72" patternUnits="userSpaceOnUse" id="SVGID_9_" viewBox="72.2 -72 72 72" style="overflow:visible;">
	<g>
		<rect x="72.2" y="-72" class="st0" width="72" height="72"/>
		<g>
			<rect x="72.2" y="-72" class="st0" width="72" height="72"/>
			<g>
				<line class="st2" x1="144" y1="-68.4" x2="216.5" y2="-68.4"/>
				<line class="st2" x1="144" y1="-54" x2="216.5" y2="-54"/>
				<line class="st2" x1="144" y1="-39.6" x2="216.5" y2="-39.6"/>
				<line class="st2" x1="144" y1="-25.2" x2="216.5" y2="-25.2"/>
				<line class="st2" x1="144" y1="-10.8" x2="216.5" y2="-10.8"/>
				<line class="st2" x1="144" y1="-61.2" x2="216.5" y2="-61.2"/>
				<line class="st2" x1="144" y1="-46.8" x2="216.5" y2="-46.8"/>
				<line class="st2" x1="144" y1="-32.4" x2="216.5" y2="-32.4"/>
				<line class="st2" x1="144" y1="-18" x2="216.5" y2="-18"/>
				<line class="st2" x1="144" y1="-3.6" x2="216.5" y2="-3.6"/>
			</g>
			<g>
				<line class="st2" x1="72" y1="-68.4" x2="144.5" y2="-68.4"/>
				<line class="st2" x1="72" y1="-54" x2="144.5" y2="-54"/>
				<line class="st2" x1="72" y1="-39.6" x2="144.5" y2="-39.6"/>
				<line class="st2" x1="72" y1="-25.2" x2="144.5" y2="-25.2"/>
				<line class="st2" x1="72" y1="-10.8" x2="144.5" y2="-10.8"/>
				<line class="st2" x1="72" y1="-61.2" x2="144.5" y2="-61.2"/>
				<line class="st2" x1="72" y1="-46.8" x2="144.5" y2="-46.8"/>
				<line class="st2" x1="72" y1="-32.4" x2="144.5" y2="-32.4"/>
				<line class="st2" x1="72" y1="-18" x2="144.5" y2="-18"/>
				<line class="st2" x1="72" y1="-3.6" x2="144.5" y2="-3.6"/>
			</g>
			<g>
				<line class="st2" x1="0" y1="-68.4" x2="72.5" y2="-68.4"/>
				<line class="st2" x1="0" y1="-54" x2="72.5" y2="-54"/>
				<line class="st2" x1="0" y1="-39.6" x2="72.5" y2="-39.6"/>
				<line class="st2" x1="0" y1="-25.2" x2="72.5" y2="-25.2"/>
				<line class="st2" x1="0" y1="-10.8" x2="72.5" y2="-10.8"/>
				<line class="st2" x1="0" y1="-61.2" x2="72.5" y2="-61.2"/>
				<line class="st2" x1="0" y1="-46.8" x2="72.5" y2="-46.8"/>
				<line class="st2" x1="0" y1="-32.4" x2="72.5" y2="-32.4"/>
				<line class="st2" x1="0" y1="-18" x2="72.5" y2="-18"/>
				<line class="st2" x1="0" y1="-3.6" x2="72.5" y2="-3.6"/>
			</g>
		</g>
	</g>
</pattern>
<g>
	<pattern  id="SVGID_17_" xlink:href="#SVGID_1_" patternTransform="matrix(1 0 0 -1 -287.1172 -15511.3877)">
	</pattern>
	<path class="st3" d="M90.1,87c0.6-2,0.8-3.7,0.8-5.3c0-7.3-6.1-9-10.6-9c-8,0-13.3,3.5-13.3,9.8c0,14.7,53.4,7.7,53.4,38.9
		c0,13.3-10.8,35.9-55,35.9c-28.3,0-47.5-8.4-47.5-31c0-2.7,0.2-5.3,0.8-8.2h37.7c-0.4,1.8-0.6,3.7-0.6,5.3c0,7.3,4.1,11.2,12,11.2
		c6.7,0,14.7-2.2,14.7-11c0-13.5-53.8-8.8-53.8-38.3C28.7,67.4,42,49.2,84,49.2c29,0,43.4,8.8,43.4,29c0,2.7-0.2,5.7-0.8,8.8H90.1z"
		/>
	<pattern  id="SVGID_18_" xlink:href="#SVGID_2_" patternTransform="matrix(1 0 0 -1 -287.1172 -15511.3877)">
	</pattern>
	<path class="st4" d="M209,82.1h-23l-7.7,33.2c-0.4,1.4-0.6,2.9-0.6,3.9c0,5.5,4.3,7.5,14.5,7.5c2,0,4.1,0,6.5-0.2l-6.9,29.2
		c-6.1,0.4-11.6,0.8-16.5,0.8c-29.2,0-39.8-8.2-39.8-23.7c0-3.5,0.6-7.1,1.6-11.4l9.2-39.4H129l6.1-25.5l18.4-5.7l6.5-26.1h38.9
		l-6.3,26.5h23.9L209,82.1z"/>
	<pattern  id="SVGID_19_" xlink:href="#SVGID_3_" patternTransform="matrix(1 0 0 -1 -287.1172 -15511.3877)">
	</pattern>
	<path class="st5" d="M282,82.1c-20.2-1.2-26.3,2.9-29.6,17.1l-13.3,56.1H200l24.5-104h21l3.7,11.6c8.6-9.2,17.9-14.7,40.8-13.7
		L282,82.1z"/>
	<pattern  id="SVGID_20_" xlink:href="#SVGID_4_" patternTransform="matrix(1 0 0 -1 -287.1172 -15511.3877)">
	</pattern>
	<polygon class="st6" points="311.3,155.3 272.2,155.3 296.4,51.3 335.4,51.3 	"/>
	<pattern  id="SVGID_21_" xlink:href="#SVGID_5_" patternTransform="matrix(1 0 0 -1 -265.1172 -15542.3877)">
	</pattern>
	<path class="st7" d="M321.3,38.6c-13.7,0-25.7-3.5-21.6-21.4c3.5-15.3,11.6-17.1,25.9-17.1c13.9,0,25.9,2.9,21.4,21.2
		C343.5,36,335.6,38.6,321.3,38.6z"/>
	<pattern  id="SVGID_22_" xlink:href="#SVGID_6_" patternTransform="matrix(1 0 0 -1 -287.1172 -15511.3877)">
	</pattern>
	<path class="st8" d="M425.9,155.3H387l14-60.2c2.4-10.2,1.6-15.1-6.9-15.1c-10.4,0-15.1,4.7-18.3,19.2l-13,56.1h-39.1l24.5-104h21
		l3.7,11.8c11-9.6,21.2-13.9,33.8-13.9c39.8,0,38.5,24.3,32.8,48.5L425.9,155.3z"/>
	<pattern  id="SVGID_23_" xlink:href="#SVGID_7_" patternTransform="matrix(1 0 0 -1 -287.1172 -15511.3877)">
	</pattern>
	<path class="st9" d="M541,51.3l-10,13.3c-6.8-8.6-15.7-15.3-29.6-15.3c-35.1,0-50.6,25.4-56.3,49.5c-6.2,25.1-3.5,57.1,28.5,57.1
		c10.2,0,18.4-1.7,29.2-8.8c-2.9,12.3-4.1,29.4-21,29.4c-8.3,0-11-2.9-11-8.4c0-1.4,0-3.1,0.6-4.9h-36.7c-0.6,3.1-0.8,6-0.8,8.4
		c0,18.9,13.3,27.3,46.5,27.3c43,0,54.4-22.4,59.1-42.6l24.5-105H541z M514,104.3c-4.1,15.5-8.8,22-20,22c-13.3,0-13.7-11.1-10-24.1
		c4.1-15.5,8.6-21.8,19.8-21.8C516.7,80.4,517.3,91.7,514,104.3z"/>
	<pattern  id="SVGID_24_" xlink:href="#SVGID_8_" patternTransform="matrix(1 0 0 -1 -287.1172 -15511.3877)">
	</pattern>
	<path class="st10" d="M625.1,82.1c-20.2-1.2-26.3,2.9-29.6,17.1l-13.3,56.1h-39.1l24.5-104h21l3.7,11.6
		c8.6-9.2,17.9-14.7,40.8-13.7L625.1,82.1z"/>
</g>
<g>
	<pattern  id="SVGID_25_" xlink:href="#SVGID_9_" patternTransform="matrix(1 0 0 -1 -258.1172 -15545.3877)">
	</pattern>
	<path class="st11" d="M97.1,86c0.6-2,0.8-3.7,0.8-5.3c0-7.3-6.1-9-10.6-9c-8,0-13.3,3.5-13.3,9.8c0,14.7,53.4,7.7,53.4,38.9
		c0,13.3-10.8,35.9-55,35.9c-28.3,0-47.5-8.4-47.5-31c0-2.7,0.2-5.3,0.8-8.2h37.7c-0.4,1.8-0.6,3.7-0.6,5.3c0,7.3,4.1,11.2,12,11.2
		c6.7,0,14.7-2.2,14.7-11c0-13.5-53.8-8.8-53.8-38.3C35.7,66.4,49,48.2,91,48.2c29,0,43.4,8.8,43.4,29c0,2.7-0.2,5.7-0.8,8.8H97.1z"
		/>
	<pattern  id="SVGID_26_" xlink:href="#SVGID_10_" patternTransform="matrix(1 0 0 -1 -258.1172 -15545.3877)">
	</pattern>
	<path class="st12" d="M216,81.1h-23l-7.7,33.2c-0.4,1.4-0.6,2.9-0.6,3.9c0,5.5,4.3,7.5,14.5,7.5c2,0,4.1,0,6.5-0.2l-6.9,29.2
		c-6.1,0.4-11.6,0.8-16.5,0.8c-29.2,0-39.8-8.2-39.8-23.7c0-3.5,0.6-7.1,1.6-11.4l9.2-39.4H136l6.1-25.5l18.4-5.7l6.5-26.1h38.9
		l-6.3,26.5h23.9L216,81.1z"/>
	<pattern  id="SVGID_27_" xlink:href="#SVGID_11_" patternTransform="matrix(1 0 0 -1 -258.1172 -15545.3877)">
	</pattern>
	<path class="st13" d="M289,81.1c-20.2-1.2-26.3,2.9-29.6,17.1l-13.3,56.1H207l24.5-104h21l3.7,11.6c8.6-9.2,17.9-14.7,40.8-13.7
		L289,81.1z"/>
	<pattern  id="SVGID_28_" xlink:href="#SVGID_12_" patternTransform="matrix(1 0 0 -1 -258.1172 -15545.3877)">
	</pattern>
	<polygon class="st14" points="318.3,154.3 279.2,154.3 303.4,50.3 342.4,50.3 	"/>
	<pattern  id="SVGID_29_" xlink:href="#SVGID_13_" patternTransform="matrix(1 0 0 -1 -258.1172 -15545.3877)">
	</pattern>
	<path class="st15" d="M328.3,37.6c-13.7,0-25.7-3.5-21.6-21.4c3.5-15.3,11.6-17.1,25.9-17.1c13.9,0,25.9,2.9,21.4,21.2
		C350.5,35,342.6,37.6,328.3,37.6z"/>
	<pattern  id="SVGID_30_" xlink:href="#SVGID_14_" patternTransform="matrix(1 0 0 -1 -258.1172 -15545.3877)">
	</pattern>
	<path class="st16" d="M432.9,154.3H394l14-60.2c2.4-10.2,1.6-15.1-6.9-15.1c-10.4,0-15.1,4.7-18.3,19.2l-13,56.1h-39.1l24.5-104h21
		l3.7,11.8c11-9.6,21.2-13.9,33.8-13.9c39.8,0,38.5,24.3,32.8,48.5L432.9,154.3z"/>
	<pattern  id="SVGID_31_" xlink:href="#SVGID_15_" patternTransform="matrix(1 0 0 -1 -258.1172 -15545.3877)">
	</pattern>
	<path class="st17" d="M548,50.3l-10,13.3c-6.8-8.6-15.7-15.3-29.6-15.3c-35.1,0-50.6,25.4-56.3,49.5c-6.2,25.1-3.5,57.1,28.5,57.1
		c10.2,0,18.4-1.7,29.2-8.8c-2.9,12.3-4.1,29.4-21,29.4c-8.3,0-11-2.9-11-8.4c0-1.4,0-3.1,0.6-4.9h-36.7c-0.6,3.1-0.8,6-0.8,8.4
		c0,18.9,13.3,27.3,46.5,27.3c43,0,54.4-22.4,59.1-42.6l24.5-105H548z M521,103.3c-4.1,15.5-8.8,22-20,22c-13.3,0-13.7-11.1-10-24.1
		c4.1-15.5,8.6-21.8,19.8-21.8C523.7,79.4,524.3,90.7,521,103.3z"/>
	<pattern  id="SVGID_32_" xlink:href="#SVGID_16_" patternTransform="matrix(1 0 0 -1 -258.1172 -15545.3877)">
	</pattern>
	<path class="st18" d="M632.1,81.1c-20.2-1.2-26.3,2.9-29.6,17.1l-13.3,56.1h-39.1l24.5-104h21l3.7,11.6
		c8.6-9.2,17.9-14.7,40.8-13.7L632.1,81.1z"/>
</g>
</svg>
